<?xml version="1.0" encoding="UTF-8" standalone="no"?>
<!-- Created with Inkscape (http://www.inkscape.org/) -->

<svg
   width="180mm"
   height="30mm"
   viewBox="0 0 200 45"
   version="1.1"
   id="svg5"
   inkscape:version="1.2.2 (732a01da63, 2022-12-09)"
   sodipodi:docname="bitlarnir-logo.svg"
   xmlns:inkscape="http://www.inkscape.org/namespaces/inkscape"
   xmlns:sodipodi="http://sodipodi.sourceforge.net/DTD/sodipodi-0.dtd"
   xmlns="http://www.w3.org/2000/svg"
   xmlns:svg="http://www.w3.org/2000/svg">
  <sodipodi:namedview
     id="namedview7"
     pagecolor="#ffffff"
     bordercolor="#000000"
     borderopacity="0.25"
     inkscape:showpageshadow="2"
     inkscape:pageopacity="0.0"
     inkscape:pagecheckerboard="0"
     inkscape:deskcolor="#d1d1d1"
     inkscape:document-units="mm"
     showgrid="false"
     inkscape:zoom="1.0544998"
     inkscape:cx="376.95598"
     inkscape:cy="244.66577"
     inkscape:window-width="1680"
     inkscape:window-height="987"
     inkscape:window-x="-8"
     inkscape:window-y="24"
     inkscape:window-maximized="1"
     inkscape:current-layer="layer1" />
  <defs
     id="defs2" />
  <g
     inkscape:label="Layer 1"
     inkscape:groupmode="layer"
     id="layer1">
    <g
       aria-label="bítlarnir
"
       transform="scale(0.96853882,1.0324831)"
       id="text997-7"
       style="font-size:57.5991px;font-family:'Eras Demi ITC';-inkscape-font-specification:'Eras Demi ITC, Normal';fill:#ffd7d7;stroke:#fc00fc;stroke-width:0;fill-opacity:1">
      <g
         id="path1375"
         style="fill:#ffd7d7;fill-opacity:1">
        <path
           style="color:#000000;-inkscape-font-specification:'Bauhaus 93, Normal';fill:#ffd7d7;stroke:none;-inkscape-stroke:none;fill-opacity:1"
           d="M 12.914612,3.4088423 V 26.386608 q 0,5.596787 4.021812,5.596787 1.715598,0 2.89683,-1.153107 1.209356,-1.181232 1.209356,-2.840581 0,-1.715598 -1.124983,-2.868705 -1.124982,-1.181231 -2.756206,-1.181231 -1.153107,0 -2.643709,1.012484 V 13.364936 q 1.856221,-0.168747 2.812456,-0.168747 5.934282,0 10.152966,4.274933 4.246808,4.274933 4.246808,10.293589 0,6.159279 -4.303057,10.377963 -4.303058,4.218683 -10.574835,4.218683 -3.14995,0 -6.159278,-1.378103 Q 7.7115685,39.605151 5.7709739,37.270812 2.3960267,33.220876 2.3960267,26.780351 V 3.4088423 Z"
           id="path1396" />
        <path
           style="color:#000000;-inkscape-font-specification:'Bauhaus 93, Normal';fill:#ffd7d7;stroke:none;-inkscape-stroke:none;fill-opacity:1"
           d="M 12.914612,3.4088423 V 26.386608 c 0,3.731188 1.340607,5.596787 4.021812,5.596787 1.143731,0 2.109343,-0.38437 2.89683,-1.153107 0.806237,-0.787487 1.209356,-1.734349 1.209356,-2.840581 0,-1.143731 -0.374995,-2.099968 -1.124983,-2.868705 -0.749987,-0.787487 -1.668724,-1.181231 -2.756206,-1.181231 -0.768737,0 -1.649975,0.337495 -2.643709,1.012484 V 13.364936 c 1.237479,-0.112498 2.174967,-0.168747 2.812456,-0.168747 3.956184,0 7.340513,1.424981 10.152966,4.274933 2.831203,2.849952 4.246808,6.281156 4.246808,10.293589 0,4.106182 -1.434355,7.56551 -4.303057,10.377963 -2.868702,2.812453 -6.393655,4.218683 -10.574835,4.218683 -2.099965,0 -4.153061,-0.459369 -6.159278,-1.378103 C 8.705305,40.06452 7.0647023,38.827036 5.7709739,37.270812 3.5210113,34.570857 2.3960267,31.07403 2.3960267,26.780351 V 3.4088423 Z"
           id="path1398" />
      </g>
      <g
         id="path1377"
         style="fill:#ff0;fill-opacity:1">
        <path
           style="color:#000000;-inkscape-font-specification:'Bauhaus 93, Normal';fill:#ffd7d7;stroke:none;-inkscape-stroke:none;fill-opacity:1"
           d="M 46.860955,13.75868 V 41.798866 H 36.342369 V 13.75868 Z M 43.176637,4.4213265 h 6.665521 l -6.665521,6.5248975 h -5.934282 z"
           id="path1402" />
        <path
           style="color:#000000;-inkscape-font-specification:'Bauhaus 93, Normal';fill:#ffd7d7;stroke:none;-inkscape-stroke:none;fill-opacity:1"
           d="M 46.860955,13.75868 V 41.798866 H 36.342369 V 13.75868 Z M 43.176637,4.4213265 h 6.665521 l -6.665521,6.5248975 h -5.934282 z"
           id="path1404" />
      </g>
      <g
         id="path1379"
         style="fill:#ffd7d7;fill-opacity:1">
        <path
           style="color:#000000;-inkscape-font-specification:'Bauhaus 93, Normal';fill:#ffd7d7;stroke:none;-inkscape-stroke:none;fill-opacity:1"
           d="M 62.385712,3.4088423 V 14.152424 h 4.724926 v 11.109201 h -4.724926 q 0,3.346823 1.040609,4.612428 1.068733,1.265605 3.881189,1.265605 V 42.19261 q -0.815612,0.02812 -1.209356,0.02812 -3.571819,0 -6.749895,-1.659349 -3.14995,-1.659349 -5.06242,-4.49993 -2.418712,-3.628068 -2.418712,-9.618599 V 3.4088423 Z"
           id="path1408" />
        <path
           style="color:#000000;-inkscape-font-specification:'Bauhaus 93, Normal';fill:#ffd7d7;stroke:none;-inkscape-stroke:none;fill-opacity:1"
           d="M 62.385712,3.4088423 V 14.152424 h 4.724926 v 11.109201 h -4.724926 c 0,2.231213 0.34687,3.768692 1.040609,4.612428 0.712488,0.843736 2.00622,1.265605 3.881189,1.265605 V 42.19261 c -0.543741,0.01875 -0.94686,0.02812 -1.209356,0.02812 -2.38121,0 -4.63118,-0.553117 -6.749895,-1.659349 -2.099965,-1.106232 -3.787441,-2.606211 -5.06242,-4.49993 -1.612473,-2.41871 -2.418712,-5.624916 -2.418712,-9.618599 V 3.4088423 Z"
           id="path1410" />
      </g>
      <g
         id="path1381"
         style="fill:#ffd7d7;fill-opacity:1">
        <path
           style="color:#000000;-inkscape-font-specification:'Bauhaus 93, Normal';fill:#ffd7d7;stroke:none;-inkscape-stroke:none;fill-opacity:1"
           d="M 82.804142,3.4088423 V 41.798866 H 72.285557 V 3.4088423 Z"
           id="path1414" />
        <path
           style="color:#000000;-inkscape-font-specification:'Bauhaus 93, Normal';fill:#ffd7d7;stroke:none;-inkscape-stroke:none;fill-opacity:1"
           d="M 82.804142,3.4088423 V 41.798866 H 72.285557 V 3.4088423 Z"
           id="path1416" />
      </g>
      <g
         id="path1383"
         style="fill:#ffd7d7;fill-opacity:1">
        <path
           style="color:#000000;-inkscape-font-specification:'Bauhaus 93, Normal';fill:#ffd7d7;stroke:none;-inkscape-stroke:none;fill-opacity:1"
           d="m 104.54443,31.280281 v 10.884205 q -1.29373,0.224996 -2.36247,0.224996 -6.328022,0 -10.546706,-4.162435 -4.218684,-4.162435 -4.218684,-10.434211 0,-6.10303 4.246809,-10.349838 4.274933,-4.246809 10.377961,-4.246809 6.80614,0 10.71546,3.993688 3.93744,3.965562 3.93744,10.85608 V 41.798866 H 106.17565 V 28.80532 q 0,-2.221841 -1.09686,-3.543695 -1.06873,-1.321854 -2.89683,-1.321854 -1.65934,0 -2.868701,1.209356 -1.209356,1.209356 -1.209356,2.868705 0,1.743723 1.096858,2.868705 1.096859,1.124983 2.784329,1.124983 1.37811,0 2.55934,-0.731239 z"
           id="path1420" />
        <path
           style="color:#000000;-inkscape-font-specification:'Bauhaus 93, Normal';fill:#ffd7d7;stroke:none;-inkscape-stroke:none;fill-opacity:1"
           d="m 104.54443,31.280281 v 10.884205 c -0.86249,0.149997 -1.64998,0.224996 -2.36247,0.224996 -4.218677,0 -7.734253,-1.387481 -10.546706,-4.162435 -2.812453,-2.774954 -4.218684,-6.253031 -4.218684,-10.434211 0,-4.068683 1.415606,-7.518635 4.246809,-10.349838 2.849952,-2.831203 6.30928,-4.246809 10.377961,-4.246809 4.53742,0 8.10925,1.331232 10.71546,3.993688 2.62496,2.643705 3.93744,6.262406 3.93744,10.85608 V 41.798866 H 106.17565 V 28.80532 c 0,-1.481226 -0.36562,-2.66246 -1.09686,-3.543695 -0.71249,-0.881235 -1.6781,-1.321854 -2.89683,-1.321854 -1.10623,0 -2.06246,0.403119 -2.868701,1.209356 -0.806237,0.806237 -1.209356,1.762473 -1.209356,2.868705 0,1.162481 0.36562,2.118718 1.096858,2.868705 0.731239,0.749988 1.659349,1.124983 2.784329,1.124983 0.91874,0 1.77185,-0.243747 2.55934,-0.731239 z"
           id="path1422" />
      </g>
      <g
         id="path1385"
         style="fill:#ffd7d7;fill-opacity:1">
        <path
           style="color:#000000;-inkscape-font-specification:'Bauhaus 93, Normal';fill:#ffd7d7;stroke:none;-inkscape-stroke:none;fill-opacity:1"
           d="m 138.20952,13.477435 v 11.249824 q -1.09685,-0.618741 -1.99684,-0.618741 -2.8687,0 -2.8687,4.387432 V 41.798866 H 122.82539 V 26.470981 q 0,-6.074905 3.3187,-9.674848 3.3187,-3.628068 8.85923,-3.628068 1.23749,0 3.2062,0.30937 z"
           id="path1426" />
        <path
           style="color:#000000;-inkscape-font-specification:'Bauhaus 93, Normal';fill:#ffd7d7;stroke:none;-inkscape-stroke:none;fill-opacity:1"
           d="m 138.20952,13.477435 v 11.249824 c -0.73123,-0.412494 -1.39685,-0.618741 -1.99684,-0.618741 -1.91246,0 -2.8687,1.46248 -2.8687,4.387432 V 41.798866 H 122.82539 V 26.470981 c 0,-4.049933 1.10624,-7.274888 3.3187,-9.674848 2.21246,-2.41871 5.16555,-3.628068 8.85923,-3.628068 0.82499,0 1.89373,0.103124 3.2062,0.30937 z"
           id="path1428" />
      </g>
      <g
         id="path1387"
         style="fill:#ffd7d7;fill-opacity:1">
        <path
           style="color:#000000;-inkscape-font-specification:'Bauhaus 93, Normal';fill:#ffd7d7;stroke:none;-inkscape-stroke:none;fill-opacity:1"
           d="M 166.30595,41.798866 H 155.78737 V 25.964739 q 0,-2.418712 -1.99685,-2.418712 -1.96872,0 -1.96872,2.418712 V 41.798866 H 141.30322 V 26.161611 q 0,-5.484289 3.62807,-9.224855 3.62807,-3.768691 8.88736,-3.768691 6.01865,0 9.64672,4.359306 2.84058,3.403072 2.84058,9.477977 z"
           id="path1432" />
        <path
           style="color:#000000;-inkscape-font-specification:'Bauhaus 93, Normal';fill:#ffd7d7;stroke:none;-inkscape-stroke:none;fill-opacity:1"
           d="M 166.30595,41.798866 H 155.78737 V 25.964739 c 0,-1.612473 -0.66562,-2.418712 -1.99685,-2.418712 -1.31248,0 -1.96872,0.806239 -1.96872,2.418712 V 41.798866 H 141.30322 V 26.161611 c 0,-3.656189 1.20936,-6.731147 3.62807,-9.224855 2.41871,-2.512458 5.38117,-3.768691 8.88736,-3.768691 4.01243,0 7.22801,1.453105 9.64672,4.359306 1.89372,2.268712 2.84058,5.428044 2.84058,9.477977 z"
           id="path1434" />
      </g>
      <g
         id="path1389"
         style="fill:#ffd7d7;fill-opacity:1">
        <path
           style="color:#000000;-inkscape-font-specification:'Bauhaus 93, Normal';fill:#ffd7d7;stroke:none;-inkscape-stroke:none;fill-opacity:1"
           d="M 182.9557,13.75868 V 41.798866 H 172.43712 V 13.75868 Z M 177.72453,1.2432512 q 2.13747,0 3.68432,1.5187262 1.57497,1.4906017 1.57497,3.5436946 0,2.1937156 -1.4906,3.5999436 -1.46247,1.4062284 -3.76869,1.4062284 -2.30621,0 -3.79681,-1.4062284 -1.46248,-1.406228 -1.46248,-3.5999436 0,-2.0530929 1.54685,-3.5436946 1.57498,-1.5187262 3.71244,-1.5187262 z"
           id="path1438" />
        <path
           style="color:#000000;-inkscape-font-specification:'Bauhaus 93, Normal';fill:#ffd7d7;stroke:none;-inkscape-stroke:none;fill-opacity:1"
           d="M 182.9557,13.75868 V 41.798866 H 172.43712 V 13.75868 Z M 177.72453,1.2432512 c 1.42498,0 2.65309,0.5062431 3.68432,1.5187262 1.04998,0.9937335 1.57497,2.1749674 1.57497,3.5436946 0,1.4624756 -0.49687,2.6624592 -1.4906,3.5999436 -0.97498,0.9374844 -2.23121,1.4062284 -3.76869,1.4062284 -1.53747,0 -2.80308,-0.468744 -3.79681,-1.4062284 -0.97499,-0.9374844 -1.46248,-2.137468 -1.46248,-3.5999436 0,-1.3687272 0.51562,-2.5499611 1.54685,-3.5436946 1.04999,-1.0124831 2.28747,-1.5187262 3.71244,-1.5187262 z"
           id="path1440" />
      </g>
      <g
         id="path1391"
         style="fill:#ffd7d7;fill-opacity:1">
        <path
           style="color:#000000;-inkscape-font-specification:'Bauhaus 93, Normal';fill:#ffd7d7;stroke:none;-inkscape-stroke:none;fill-opacity:1"
           d="m 204.52724,13.477435 v 11.249824 q -1.09685,-0.618741 -1.99684,-0.618741 -2.86871,0 -2.86871,4.387432 V 41.798866 H 189.14311 V 26.470981 q 0,-6.074905 3.3187,-9.674848 3.31869,-3.628068 8.85923,-3.628068 1.23748,0 3.2062,0.30937 z"
           id="path1444" />
        <path
           style="color:#000000;-inkscape-font-specification:'Bauhaus 93, Normal';fill:#ffd7d7;stroke:none;-inkscape-stroke:none;fill-opacity:1"
           d="m 204.52724,13.477435 v 11.249824 c -0.73123,-0.412494 -1.39685,-0.618741 -1.99684,-0.618741 -1.91247,0 -2.86871,1.46248 -2.86871,4.387432 V 41.798866 H 189.14311 V 26.470981 c 0,-4.049933 1.10624,-7.274888 3.3187,-9.674848 2.21246,-2.41871 5.16554,-3.628068 8.85923,-3.628068 0.82499,0 1.89372,0.103124 3.2062,0.30937 z"
           id="path1446" />
      </g>
    </g>
  </g>
</svg>
